<?xml version="1.0" standalone="no"?>
<!DOCTYPE svg PUBLIC "-//W3C//DTD SVG 20010904//EN"
 "http://www.w3.org/TR/2001/REC-SVG-20010904/DTD/svg10.dtd">
<svg version="1.0" xmlns="http://www.w3.org/2000/svg"
 width="512.000000pt" height="512.000000pt" viewBox="0 0 512.000000 512.000000"
 preserveAspectRatio="xMidYMid meet">
<metadata>
Created by potrace 1.11, written by Peter Selinger 2001-2013
</metadata>
<g transform="translate(0.000000,512.000000) scale(0.100000,-0.100000)"
fill="#000000" stroke="none">
<path d="M3614 4939 c-17 -19 -19 -42 -22 -273 -3 -244 -2 -253 18 -279 l21
-27 365 0 364 0 0 -355 c0 -342 1 -356 20 -375 19 -19 33 -20 278 -20 217 0
261 2 280 16 l22 15 0 643 c0 610 -1 644 -18 659 -17 15 -77 17 -664 17 -643
0 -645 0 -664 -21z"/>
<path d="M2043 4665 c-118 -33 -217 -104 -283 -202 -93 -142 -93 -357 0 -503
102 -159 307 -248 477 -208 37 9 68 16 69 15 0 -1 107 -153 236 -337 129 -184
238 -341 242 -347 4 -8 -6 -32 -24 -58 -39 -57 -90 -164 -90 -190 0 -11 -4
-26 -9 -33 -6 -10 -195 -29 -717 -73 l-709 -59 -20 27 c-48 66 -81 95 -142
125 -53 26 -80 32 -149 36 -172 9 -299 -63 -368 -208 -28 -59 -31 -74 -31
-165 0 -89 3 -107 28 -160 36 -78 104 -146 181 -182 54 -25 72 -28 161 -28 88
0 107 3 157 27 32 15 80 48 107 73 49 46 111 150 111 186 0 13 11 19 43 23 38
5 1334 116 1355 116 5 0 17 -20 26 -45 10 -25 39 -78 66 -118 l48 -74 -180
-291 -180 -292 -58 0 c-220 0 -396 -224 -351 -444 37 -179 169 -295 347 -304
139 -7 247 40 327 144 96 126 101 291 11 444 l-34 59 161 268 c89 147 167 273
173 279 8 9 35 7 104 -4 86 -15 99 -15 174 0 45 10 83 16 83 15 1 -1 104 -181
229 -400 l228 -397 -25 -33 c-37 -49 -77 -130 -93 -189 -63 -237 107 -488 359
-530 188 -31 380 71 463 246 103 217 8 494 -205 599 -59 29 -75 32 -166 34
l-100 2 -227 395 -228 395 48 64 c90 119 122 210 122 353 0 54 -6 112 -16 145
-69 234 -299 409 -539 409 -44 0 -137 -17 -201 -35 -19 -6 -51 34 -263 329
-132 185 -241 338 -241 341 0 2 13 25 29 50 46 73 64 156 59 277 -3 97 -6 111
-40 179 -57 115 -152 201 -266 241 -74 26 -201 33 -269 13z"/>
<path d="M195 1518 c-11 -6 -23 -16 -27 -22 -4 -6 -8 -298 -8 -648 l0 -637 27
-20 c26 -21 30 -21 664 -19 597 3 639 4 656 21 16 16 18 44 21 277 l3 260 -25
25 -25 25 -361 0 -360 0 0 353 c0 193 -4 357 -8 363 -20 30 -55 34 -294 34
-162 -1 -250 -4 -263 -12z"/>
</g>
</svg>
